<?xml version="1.0" encoding="utf-8"?>

<!DOCTYPE svg PUBLIC "-//W3C//DTD SVG 1.1//EN" "http://www.w3.org/Graphics/SVG/1.1/DTD/svg11.dtd">
<!-- Uploaded to: SVG Repo, www.svgrepo.com, Generator: SVG Repo Mixer Tools -->
<svg height="800px" width="800px" version="1.1" id="_x32_" xmlns="http://www.w3.org/2000/svg" xmlns:xlink="http://www.w3.org/1999/xlink" 
	 viewBox="0 0 512 512"  xml:space="preserve">
<style type="text/css">
	.st0{fill:#000000;}
</style>
<g>
	<path class="st0" d="M81.876,169.851v-68.266l67.776,43.851v55.916c0,0,0.351-0.157,0.942-0.416
		c1.042,29.01,13.236,55.26,32.406,74.413c20.057,20.075,47.858,32.517,78.474,32.508c30.616,0.01,58.427-12.432,78.474-32.508
		c19.179-19.153,31.373-45.403,32.407-74.413c0.599,0.259,0.95,0.416,0.95,0.416v-55.916l86.412-55.906L261.473,0L63.24,89.531
		v80.32c-6.277,1.486-10.956,7.089-10.956,13.817v4.07H92.84v-4.07C92.84,176.94,88.151,171.337,81.876,169.851z M170.889,194.385
		c22.282-5.345,58.454-8.464,90.584,14.02c32.13-22.484,68.312-19.365,90.593-14.02c0.018,0.831,0.055,1.66,0.055,2.491
		c0,25.07-10.125,47.664-26.546,64.104c-16.438,16.42-39.033,26.546-64.102,26.554c-25.059-0.008-47.655-10.134-64.093-26.554
		c-16.42-16.439-26.546-39.034-26.555-64.104C170.825,196.045,170.871,195.216,170.889,194.385z"/>
	<path class="st0" d="M52.284,219.592c0,7.864,6.368,14.232,14.233,14.232h12.091c7.854,0,14.232-6.369,14.232-14.232v-23.38H52.284
		V219.592z"/>
	<path class="st0" d="M326.989,314.024c0,0-3.185,2.547-8.926,5.861l-56.589,95.761l-56.589-95.761
		c-5.741-3.314-8.925-5.861-8.925-5.861c-51.209,22.586-72.29,76.812-72.29,119.732c0,42.929,0,78.244,0,78.244h275.619
		c0,0,0-35.315,0-78.244C399.288,390.836,378.197,336.61,326.989,314.024z"/>
</g>
</svg>